<?xml version="1.0" encoding="UTF-8"?>
<svg id="Layer_1" data-name="Layer 1" xmlns="http://www.w3.org/2000/svg" viewBox="0 0 640.25 357.25">
  <path d="m.25,225.25c2.04-1.41,4.27-1.04,6.52-.78,12.73,1.5,24.78,5.37,36.42,10.59,5.6,2.51,10.68,5.98,15.86,9.23,5.19,3.25,10.43,6.41,15.81,9.34,2.34,1.27,4.87,1.93,7.49,2.26,1.38.17,2.61-.5,3.87-.87,12.94-3.83,25.68-8.24,37.96-13.89,11.14-5.13,21.91-10.96,32.2-17.6,7.38-4.76,14.34-10.15,21.39-15.4,10.26-7.64,20.31-15.54,30.37-23.43,5.5-4.32,10.97-8.68,16.46-13.01,6.54-5.15,13.29-10.04,19.83-15.19,8.81-6.93,17.98-13.35,27.35-19.5,9.41-6.18,19.29-11.53,29.18-16.89,12.21-6.62,24.85-12.32,37.86-17.15,9.57-3.55,19.37-6.37,29.26-8.9,9.57-2.45,19.25-4.3,28.98-5.95,8.37-1.42,16.81-2.38,25.26-3.17,4.47-.42,8.95-.81,13.42-1.22.28-.03.66.05.75-.3.11-.41-.27-.66-.48-.96-3.06-4.47-6.77-8.45-9.64-13.06-1.55-2.48-2.97-5.02-3.66-7.9-1.27-5.25-.73-10.24,2.21-14.87,1.59-2.51,4.07-3.32,6.85-3.44,6.44-.27,12.56,1.16,18.52,3.45,1.28.49,2.55,1.01,3.84,1.5.29.11.64.37.91.02.2-.25.05-.56-.07-.83-1.96-4.57-3.07-9.42-4.42-14.18-.92-3.25-.96-6.66-.79-10.04.07-1.29.18-2.57.23-3.86.16-4.17,2.46-7.45,4.57-10.78,1.27-2,2.73-3.89,4.39-5.6.97-1,2.02-1.85,3.48-2.05.38-.05.86-.09,1.04-.57h8c.15.41.54.5.89.6,2.78.81,5.33,2.15,7.78,3.65,7.87,4.81,14.58,11.07,21.28,17.3,3.63,3.38,6.63,7.36,9.96,11.03,4.15,4.58,7.74,9.52,10.45,15.16,6.63,13.79,11.45,28.22,15.59,42.89.69,2.44,1.75,3.68,4.28,4.15,3.18.59,6.36,1.42,9.39,2.55,9.06,3.38,17.73,7.67,26.34,12.03,6.39,3.24,12.48,7.01,18.48,10.93,5.69,3.72,11.21,7.66,16.31,12.13,5.19,4.55,10.61,8.84,15.6,13.63,1.8,1.73,3.97,3.14,5.46,5.09,2.32,3.03,5.08,5.81,6.49,9.6.19-.34.32-.55.44-.76v5.25c-.32-.08-.46.13-.55.37-.72,1.92-2.22,3.04-3.96,3.97-2.11,1.12-3.96,2.59-5.67,4.26-3.87,3.8-7.94,7.34-12.5,10.33-3.8,2.49-7.9,4.08-12.34,4.86-6.41,1.12-12.91,1.27-19.38,1.79-4.56.36-9.15.27-13.69.95-2.67.4-5.4.32-8.08.69-4.74.66-9.52.99-14.27,1.51-6.16.66-12.35,1.2-18.44,2.27-6.76,1.18-13.46,2.7-20.16,4.2-14.41,3.24-28.84,6.42-43.31,9.36-6.48,1.32-13.02,2.34-19.51,3.63-9.63,1.91-19.23,3.97-28.86,5.89-2.54.51-4.84,1.14-5.6,4.04-.09.35-.35.66-.56.97-1.67,2.48-2.41,5.28-2.82,8.19-.81,5.68-1.62,11.36-2.46,17.03-.47,3.21-1.05,6.4-1.51,9.61-1.14,7.9-2.09,15.83-3.41,23.7-.78,4.65-1.02,9.34-1.53,14.01-.69,6.29-1.5,12.55-2.54,18.78-.74,4.43-1.7,8.82-2.78,13.19-1.45,5.83-3,11.63-5.58,17.07-2.02,4.26-4.21,8.48-8.93,10.48-.34.14-.26.37-.06.59h-4.5c.31-.22.7-.41.26-.85-.32-.33-.35-.74-.35-1.16.1-6.09-.48-12.13-.86-18.19-.36-5.77-1.19-11.41-2.55-17-2.42-9.92-5.41-19.66-8.84-29.28-4.42-12.37-9.49-24.45-15.72-36.03-2.18-4.05-4.55-7.94-8.08-11.02-2.32-2.03-5.07-3.53-7.16-5.83-.24-.26-.57-.31-.92-.24-2.13.37-4.29.63-6.39,1.12-10.2,2.42-20.41,4.81-30.53,7.59-5.18,1.42-10.41,2.73-15.41,4.65-14.53,5.59-28.89,11.63-43.42,17.24-17.22,6.65-34.66,12.58-52.71,16.61-9.98,2.23-20.05,3.57-30.29,3.71-6.08.08-12.17.02-18.23-.31-5.35-.29-10.68-.92-16-1.68-5.99-.86-11.89-2.01-17.63-3.95-6.75-2.27-13.43-4.74-19.76-8.03-2.82-1.46-5.56-1.59-8.55-.76-5.85,1.64-11.75,3.14-17.84,3.52-6.18.38-12.35,1.26-18.57.94-.47-.02-1.1.2-1.28-.46-.16-.58.34-.92.75-1.18.84-.53,1.74-.98,2.59-1.5.76-.46,1.09-1.04.73-1.99-.42-1.12-.53-2.35-1.11-3.43-.41-.76-.09-1.25.63-1.6,1.01-.48,2.03-.97,3.02-1.5.38-.21.93-.47.76-1.01-.15-.5-.72-.28-1.11-.3-1.18-.08-2.41.22-3.46-.67-1.98-1.68-3.83-3.46-5.29-5.63-2.07-3.07-4.16-6.13-6.21-9.22-1.88-2.83-4.43-5.08-6.53-7.72-3.24-4.05-7.12-7.34-11.47-10.12-3.19-2.04-6.62-3.71-9.48-6.24v-.5Zm634.87-69.28c.33.02.57.12.69-.11.12-.22-.07-.38-.17-.56-.43-.79-.99-1.32-2-1.11-.71.15-1.41.02-2.1-.19-2.87-.85-5.79-1.45-8.75-1.88-.57-.08-1.16-.14-1.62-.58-1.31-1.25-2.78-2.16-4.52-2.75-3.11-1.05-6.16-2.3-9.24-3.43-3.32-1.22-6.66-2.36-9.97-3.59-2.96-1.1-5.86-2.4-8.85-3.39-3.35-1.11-6.57-2.55-9.91-3.69-2.05-.7-4.03-1.58-6.06-2.33-3.35-1.25-6.71-2.45-10.06-3.7-2.03-.76-4.01-1.66-6.06-2.32-3.2-1.03-6.22-2.5-9.43-3.5-.88-.27-1.78-.65-2.66-1.01-1.61-.66-3.15-1.61-5-1.5-.68.04-1.28-.15-1.79-.69-2.54-2.7-5.21-5.27-6.87-8.66-.14-.28-.32-.7-.72-.53-.53.23-.18.65-.04.96.83,1.93,1.9,3.7,3.32,5.25,4.02,4.39,8.04,8.79,12.07,13.18,4.22,4.61,8.47,9.2,13.58,12.87,1.42,1.02,2.86,2.1,4.61,2.44,6.99,1.37,13.93,2.94,20.88,4.44.79.17,1.69.64,2.43.17.61-.38.34-1.31.58-1.97.5-1.34.85-1.55,2.23-1.19,1.41.37,2.83.71,4.22,1.13,6.24,1.85,12.59,3.15,19.01,4.16,4.85.76,9.74,1.26,14.54,2.31,2.6.57,5.2,1.18,7.66,1.74Zm-411.12,36.43c-.61-.16-.86.2-1.1.43-2.96,2.87-5.97,5.7-8.59,8.89-1.45,1.76-2.51,3.7-2.28,6.16.18,1.89.37,2.29,2.22,2.78,3.66.95,7.36,1.26,11.13.81,4.13-.49,8.3-.69,12.27-2.1,4.83-1.71,9.63-3.49,14.36-5.44,10.21-4.2,20.05-8.94,28.44-16.36,5.77-5.1,11.23-10.42,15.68-16.72.34-.49.78-.94.9-1.58-.51-.14-.65.22-.88.43-1.95,1.72-3.08,4.1-4.88,5.95-1.38,1.42-2.56,3.09-4.51,3.81-2.66.98-5.24,2.13-7.86,3.19-8.4,3.42-16.83,6.79-25.25,10.16-9.9,3.97-19.83,7.85-29.69,11.91-3.21,1.32-6.7,2.07-9.5,4.32-.5.4-1.1.24-1.17-.52-.15-1.58-.3-3.15.58-4.62.9-1.5,1.81-3,3.09-4.2,2.44-2.29,4.36-5.06,7.03-7.28Zm301.71-31.94c-1.6.36-2.1,1.52-1.16,2.77,1.71,2.27,3.98,3.74,6.66,4.62,4.44,1.46,9.06,1.66,13.65,2.07,3.11.28,6.23.34,9.33.69,4.8.54,9.59,1.18,14.42.79,4.36-.35,8.38-1.77,11.84-4.5,2.15-1.7,1.28-3.17-.38-4.6-.4-.34-.78-.43-.81.28-.05,1.15-.75,1.24-1.64,1.07-1.64-.3-3.29-.49-4.96-.39-2.81.15-5.6.01-8.44.37-3.43.43-6.95.26-10.41.79-2.4.37-4.81-.22-7.22-.19-6.28.09-12.57.05-18.86.08-1.64,0-2.8-1.68-2.15-3.17.09-.22.33-.4.13-.68Zm-435.63,98.97c1.05.1,2.15-.15,3.27-.27.94-.1,1.36-.72,1.53-1.56.12-.64-.2-.92-.77-.61-2.21,1.2-4.63,1.02-7.01,1.1-.25,0-.54-.07-.62.25-.08.3.19.42.4.55.97.59,2.05.59,3.22.54Z"/>
  <path d="m640,164l-31-29s-84-32-99-33-228,42-228,42l-110,76-63,35-40,6s-37-28-48-32S0,224,0,224C0,224,0,357,0,357s640,0,640,0,0-193,0-193Z"/>
</svg>